<svg xmlns="http://www.w3.org/2000/svg" width="150" height="36" viewBox="0 0 150 36" fill="none">
  <path d="M4.16797 34.8601V0H14.8719C20.0439 0 24.3811 1.66906 27.8836 5.00718C29.5863 6.58992 30.9347 8.51513 31.8402 10.6562C32.7457 12.7974 33.1878 15.1059 33.1373 17.43C33.1879 19.7542 32.7458 22.0628 31.8403 24.2039C30.9348 26.345 29.5864 28.2702 27.8836 29.8529C24.3803 33.191 20.043 34.8601 14.8719 34.8601H4.16797Z" fill="#20248A"/>
  <path d="M21.6524 3.8633C21.2297 3.68013 20.7461 3.8595 20.277 4.94079C19.7015 6.26674 9.02293 31.2874 9.24159 31.3818C9.46026 31.4763 21.2297 6.92908 21.8052 5.60377C22.2983 4.46733 22.0739 4.04647 21.6524 3.8633ZM18.174 11.8811C18.0137 11.8114 19.1064 8.75322 19.9747 6.74718C20.6947 5.08847 20.9628 4.4705 21.3203 4.62578C21.6778 4.78107 21.4097 5.39841 20.6897 7.05775C19.8213 9.05999 18.3344 11.9477 18.174 11.8779" fill="white"/>
  <path d="M1.15214 23.7973C3.32423 22.9372 4.85808 21.0268 5.88106 18.9897C7.13729 16.4893 7.69252 13.7132 8.81248 11.1576C9.75687 9.00264 11.1956 6.86731 13.388 5.83925C15.2058 4.98677 17.6441 5.1129 19.1672 6.5073C20.8582 8.05509 20.3765 10.6772 21.8292 12.36C22.1979 12.7626 22.6478 13.0824 23.1491 13.2984C23.6505 13.5144 24.192 13.6217 24.7378 13.613C25.8645 13.5964 26.9514 13.1937 27.8169 12.4722C28.27 12.1053 28.6747 11.6823 29.0212 11.2134C29.3398 10.8084 29.5961 10.358 29.7818 9.87732C30.0562 9.11357 30.1735 8.05192 29.4953 7.45613C29.3467 7.33613 29.1738 7.24987 28.9886 7.20332C28.8034 7.15678 28.6104 7.15107 28.4227 7.18658C28.2351 7.22209 28.0574 7.29798 27.902 7.40898C27.7466 7.51999 27.6172 7.66346 27.5228 7.82945C27.2657 8.16459 27.1264 8.57518 27.1264 8.99758C27.1264 9.41997 27.2657 9.83056 27.5228 10.1657C27.8775 10.5425 28.3061 10.8421 28.7818 11.0459C29.2575 11.2496 29.7701 11.353 30.2875 11.3497C31.4054 11.4034 32.5246 11.2736 33.6005 10.9656C35.7606 10.3754 37.711 9.18935 39.2288 7.54296C39.6025 7.13414 39.9453 6.69814 40.2543 6.23856C40.3336 6.12194 40.1599 5.98503 40.0807 6.10482C38.8466 7.91666 37.1219 9.33935 35.1084 10.2063C34.1029 10.6433 33.0396 10.933 31.9513 11.0664C30.8964 11.2465 29.8131 11.1594 28.8006 10.8128C28.3265 10.6343 27.9148 10.3212 27.616 9.91218C27.4942 9.73549 27.4107 9.53524 27.371 9.32434C27.3312 9.11343 27.3361 8.89655 27.3853 8.68764C27.5336 7.99044 28.2156 7.11006 29.0231 7.42C29.9345 7.77177 29.8692 8.94117 29.6157 9.70175C29.4439 10.1812 29.1973 10.6305 28.8849 11.0328C28.5466 11.497 28.1502 11.916 27.7054 12.2795C26.8392 13.014 25.7352 13.408 24.5996 13.388C24.0526 13.3801 23.5147 13.2465 23.0276 12.9975C22.5404 12.7486 22.1169 12.391 21.7899 11.9524C21.2608 11.0231 20.8962 10.0093 20.7124 8.95574C20.5052 7.9788 20.027 7.07997 19.3326 6.36216C18.5929 5.74239 17.7041 5.32655 16.7543 5.15579C15.8045 4.98504 14.8265 5.06529 13.9172 5.38861C11.8136 6.07947 10.2722 7.89663 9.2384 9.77908C7.96379 12.102 7.37751 14.7115 6.43059 17.1688C5.60282 19.3174 4.422 21.4597 2.5009 22.8148C2.05423 23.1296 1.57193 23.3904 1.06403 23.5919C0.93473 23.647 1.0203 23.8492 1.15214 23.7973Z" fill="white" stroke="white" stroke-width="0.63801" stroke-miterlimit="10"/>
  <path d="M48.942 18.7729V18.8496C48.9462 19.0622 48.9004 19.2727 48.8083 19.4644V19.4834L48.7886 19.5024C48.7548 19.579 48.7097 19.6501 48.6549 19.7135C48.6552 19.7161 48.6549 19.7188 48.654 19.7213C48.6531 19.7239 48.6517 19.7262 48.6498 19.728C48.648 19.7299 48.6456 19.7314 48.6431 19.7323C48.6406 19.7331 48.6379 19.7334 48.6353 19.7331L48.6163 19.7712L48.5586 19.8288L48.5199 19.8675L48.5009 19.8865C48.5009 19.9125 48.4939 19.9245 48.4813 19.9245C48.4787 19.9243 48.476 19.9247 48.4736 19.9256C48.4712 19.9266 48.469 19.928 48.4671 19.9299C48.4653 19.9318 48.4639 19.934 48.4631 19.9365C48.4622 19.939 48.4619 19.9416 48.4622 19.9442L48.4242 19.9632L48.4045 19.9822C48.3998 19.9878 48.3941 19.9924 48.3875 19.9957C48.381 19.999 48.3738 20.0009 48.3665 20.0012C48.3532 20.0012 48.3475 20.0082 48.3475 20.0209L48.3088 20.0399L48.2898 20.0589C48.285 20.0646 48.2792 20.0693 48.2725 20.0727C48.2659 20.076 48.2586 20.078 48.2512 20.0786C48.2486 20.0783 48.246 20.0785 48.2435 20.0794C48.2411 20.0802 48.2389 20.0816 48.237 20.0835C48.2352 20.0853 48.2338 20.0875 48.233 20.09C48.2321 20.0924 48.2319 20.095 48.2322 20.0976L48.1935 20.1166C48.1839 20.1279 48.1723 20.1372 48.1591 20.1439C48.1459 20.1507 48.1316 20.1547 48.1168 20.1559L48.0788 20.1749L48.0591 20.1939H48.0211C48.0112 20.2051 47.9973 20.2119 47.9824 20.2129C47.9698 20.2129 47.9628 20.2129 47.9628 20.2224C47.9628 20.2319 47.9565 20.2326 47.9444 20.2326H47.9057C47.8959 20.2434 47.8823 20.2502 47.8677 20.2516C47.8542 20.2516 47.841 20.2548 47.8291 20.2611C47.8173 20.2671 47.8043 20.2703 47.791 20.2706H47.694L47.656 20.2903H47.5407C46.495 20.364 45.4465 20.1928 44.4787 19.7902C43.7469 19.4257 43.0967 18.9164 42.5677 18.2931C42.5091 18.2186 42.4456 18.148 42.3776 18.082C41.9297 18.1585 41.5329 18.7216 41.1873 19.7712C40.6242 21.7584 40.327 23.8114 40.3037 25.8767C40.4064 27.2711 40.4643 28.0199 40.4774 28.123L40.4958 28.2764L40.5154 28.3341V28.4108C40.5148 28.5928 40.489 28.7739 40.4387 28.9489C40.3432 29.1924 40.1911 29.4096 39.995 29.5827C39.7204 29.8433 39.3831 30.0285 39.0158 30.1202C38.5597 30.2466 38.0875 30.3049 37.6144 30.2932C36.4106 30.2932 35.6232 29.9157 35.2522 29.1606C34.792 28.239 34.5746 25.7111 34.6 21.5769C34.5682 19.308 34.6579 17.0391 34.8687 14.7798C34.8844 14.64 34.9234 14.5037 34.9841 14.3767C35.0806 14.187 35.1998 14.0098 35.339 13.8487C35.5592 13.6097 35.8463 13.4427 36.163 13.3696C36.6112 13.2558 37.0768 13.2263 37.5358 13.2828C38.1629 13.3189 38.7719 13.5066 39.3105 13.8297C39.7428 14.0868 40.0667 14.4923 40.2219 14.9706C40.5315 14.5957 40.9182 14.2918 41.3557 14.0797C41.7931 13.8675 42.2711 13.752 42.7572 13.741C43.0967 13.7341 43.4339 13.7988 43.7466 13.9311C44.036 14.0602 44.2896 14.2577 44.4856 14.5067C44.6511 14.709 44.805 14.9206 44.9464 15.1405C45.0746 15.3575 45.1899 15.5818 45.2919 15.8123C45.4964 16.2218 45.6563 16.5163 45.7717 16.6959C45.9272 16.909 46.1359 17.0778 46.377 17.1852C46.7223 17.3446 47.1003 17.4204 47.4804 17.4064H47.6535C47.7007 17.4088 47.7469 17.4218 47.7885 17.4444C47.8339 17.4419 47.8793 17.4484 47.9222 17.4634H47.9419C48.0925 17.5207 48.2345 17.5983 48.364 17.6941C48.4863 17.7662 48.591 17.8645 48.6708 17.9819C48.6752 18.0035 48.6853 18.0236 48.6999 18.0402C48.7146 18.0601 48.7305 18.0792 48.7474 18.0972L48.8057 18.2126L48.8444 18.2893V18.3083L48.8628 18.347V18.366C48.8628 18.3793 48.8666 18.3856 48.8729 18.3856C48.8793 18.3856 48.8825 18.392 48.8825 18.4046V18.4427C48.8924 18.4605 48.8987 18.4801 48.9008 18.5003L48.9211 18.5194V18.558C48.9209 18.5714 48.924 18.5847 48.93 18.5967C48.9363 18.6084 48.9396 18.6214 48.9395 18.6347V18.7691L48.942 18.7729Z" fill="#20248A"/>
  <path d="M58.3415 22.3669C58.5726 22.1986 58.8486 22.1029 59.1342 22.0921C59.4199 22.0813 59.7023 22.1559 59.9454 22.3062C60.1885 22.4566 60.3813 22.6759 60.4992 22.9363C60.6171 23.1967 60.6548 23.4863 60.6075 23.7682C60.2229 25.3546 59.4585 26.8237 58.3802 28.049L58.3618 28.0687C57.3797 29.235 56.0449 30.0503 54.5589 30.3916C54.2189 30.4724 53.8714 30.5175 53.522 30.526H53.3109C50.8149 30.526 48.9526 29.7707 47.7238 28.2601C46.6742 26.9553 46.1494 25.1635 46.1494 22.8847C46.131 21.5117 46.3821 20.1484 46.8884 18.872C47.3282 17.7412 48.0521 16.743 48.9902 15.9735C49.5802 15.4553 50.2846 15.0843 51.0456 14.8907C51.8067 14.6972 52.6027 14.6866 53.3686 14.8599C54.1726 15.0228 54.9029 15.4401 55.4513 16.0502C55.9955 16.6356 56.3299 17.3851 56.4021 18.1811C56.4141 18.4245 56.4141 18.6679 56.4021 18.91C56.233 20.4853 55.1387 21.6439 53.1189 22.3859C52.4402 22.6261 51.7397 22.7995 51.0273 22.9037C50.9849 24.1323 51.2491 25.3521 51.7961 26.4531C51.9299 26.7872 52.1558 27.0765 52.4475 27.2873C52.7392 27.4982 53.0848 27.6218 53.444 27.644C53.6253 27.6366 53.8054 27.6109 53.9815 27.5673C54.9023 27.2973 55.7199 26.7548 56.3266 26.0113C56.5558 25.7485 56.7611 25.4657 56.9402 25.1664C56.9421 25.1491 56.9489 25.1326 56.9598 25.1189C56.9711 25.1016 56.984 25.0855 56.9985 25.0707C57.3458 24.5263 57.6048 23.9303 57.766 23.3049C57.7925 23.1171 57.8573 22.9367 57.9563 22.775C58.0553 22.6132 58.1864 22.4734 58.3415 22.3643M53.0434 17.8902C52.8719 17.9089 52.7067 17.9661 52.5603 18.0575C52.4139 18.1489 52.29 18.2722 52.1979 18.4182C51.873 18.8556 51.6263 19.346 51.469 19.8677C51.7038 19.8138 51.9345 19.7433 52.1593 19.6566C53.0301 19.3245 53.4848 18.9789 53.5233 18.6197V18.6007C53.5288 18.596 53.5334 18.5902 53.5367 18.5836C53.54 18.5771 53.5418 18.57 53.5423 18.5627C53.4959 18.3286 53.3903 18.1104 53.2355 17.9289C53.1759 17.9017 53.1108 17.8885 53.0453 17.8902" fill="#20248A"/>
  <path d="M70.2531 23.1693C70.4143 23.2716 70.5535 23.4051 70.6623 23.562C70.7712 23.7188 70.8475 23.8958 70.8869 24.0827C70.9329 24.2656 70.9413 24.456 70.9116 24.6423C70.8818 24.8286 70.8146 25.0069 70.7139 25.1665C69.6932 26.7216 68.2388 27.9431 66.5307 28.6797C66.5496 29.9235 66.2454 31.1509 65.6478 32.2418C65.1115 33.2466 64.2714 34.0563 63.2475 34.5553C62.6028 34.8738 61.8928 35.0382 61.1737 35.0357C59.9557 35.0212 58.7786 34.5947 57.8341 33.8257C57.3499 33.4827 57.003 32.9793 56.8548 32.4047C56.6643 31.6587 56.7564 30.8685 57.1134 30.1863C57.4829 29.4332 58.0768 28.8132 58.8133 28.4116C59.5504 28.0184 60.3294 27.7095 61.1356 27.4907C60.7664 26.778 60.3015 26.119 59.7539 25.5322C59.3563 25.0594 59.0523 24.682 58.8419 24.4002C58.6314 24.1184 58.3688 23.7214 58.054 23.2093C57.746 22.7094 57.5162 22.1655 57.3727 21.5962C57.2297 21.0119 57.1588 20.4123 57.1616 19.8107C57.1351 18.4826 57.5107 17.1776 58.2391 16.0667C58.6025 15.4975 59.0866 15.0151 59.6572 14.6536C60.2277 14.2922 60.8707 14.0605 61.5407 13.9751C62.083 13.8314 62.6597 13.8993 63.1537 14.1653C63.4478 14.301 63.6946 14.5215 63.8623 14.7986C64.0301 15.0756 64.1111 15.3966 64.0949 15.72C64.0743 16.3115 63.8505 16.8779 63.4611 17.3236C63.0197 17.872 62.4951 18.3479 61.9064 18.7339V18.7529C62.0337 19.2615 62.2172 19.7545 62.4534 20.2227C62.6547 20.6427 62.882 21.0498 63.1341 21.4415C63.3386 21.7491 63.6394 22.1717 64.0366 22.7092C64.7719 23.6557 65.4029 24.679 65.9184 25.761C66.8708 25.2648 67.6786 24.5307 68.2636 23.6301C68.3658 23.469 68.4992 23.3299 68.656 23.2211C68.8127 23.1122 68.9896 23.0358 69.1763 22.9963C69.3593 22.9508 69.5495 22.9427 69.7357 22.9723C69.9219 23.0019 70.1002 23.0687 70.2601 23.1687M60.7325 31.1764C60.8732 30.9959 60.9714 30.7859 61.0196 30.5622C60.7551 30.6573 60.4985 30.773 60.2521 30.9083C60.0026 31.0414 59.8013 31.2496 59.6766 31.5034H59.7153C59.8979 31.5255 60.0831 31.5077 60.2582 31.4512C60.4333 31.3947 60.594 31.301 60.7294 31.1764" fill="#20248A"/>
  <path d="M80.8508 23.1693C81.0119 23.2717 81.151 23.4052 81.2599 23.562C81.3687 23.7189 81.4451 23.8959 81.4846 24.0826C81.5306 24.2656 81.539 24.456 81.5092 24.6423C81.4795 24.8286 81.4123 25.0069 81.3116 25.1665C80.2911 26.7217 78.8366 27.9433 77.1284 28.6797C77.1472 29.9234 76.8433 31.1507 76.2461 32.2418C75.7098 33.2466 74.8697 34.0563 73.8458 34.5552C73.201 34.8736 72.4911 35.0381 71.772 35.0357C70.5539 35.0212 69.3766 34.5947 68.4318 33.8257C67.9478 33.4825 67.6009 32.9791 67.4525 32.4047C67.2618 31.6586 67.3542 30.8683 67.7117 30.1863C68.0811 29.4333 68.6748 28.8133 69.411 28.4116C70.1483 28.0184 70.9275 27.7094 71.734 27.4907C71.3645 26.778 70.8994 26.119 70.3516 25.5322C69.9548 25.0593 69.651 24.682 69.4402 24.4002C69.2293 24.1183 68.9667 23.7214 68.6523 23.2092C68.3441 22.7094 68.1141 22.1655 67.9704 21.5962C67.8276 21.0118 67.7569 20.4122 67.7599 19.8107C67.7336 18.4826 68.1092 17.1776 68.8374 16.0667C69.2009 15.4974 69.6851 15.0149 70.2558 14.6535C70.8264 14.292 71.4695 14.0604 72.1396 13.9751C72.6817 13.8314 73.2583 13.8993 73.7521 14.1653C74.0463 14.3008 74.2931 14.5213 74.4609 14.7984C74.6286 15.0755 74.7096 15.3965 74.6933 15.72C74.6728 16.3115 74.4489 16.8779 74.0595 17.3236C73.6178 17.872 73.093 18.3479 72.5041 18.7338V18.7528C72.6318 19.2614 72.8152 19.7543 73.051 20.2227C73.2523 20.6429 73.4799 21.05 73.7324 21.4415C73.9365 21.7491 74.2374 22.1717 74.635 22.7091C75.37 23.6559 76.0009 24.6791 76.5168 25.761C77.4691 25.2647 78.2769 24.5307 78.8619 23.6301C78.9641 23.4691 79.0974 23.3301 79.254 23.2212C79.4107 23.1124 79.5874 23.0359 79.774 22.9963C79.9571 22.9508 80.1474 22.9426 80.3337 22.9723C80.52 23.0019 80.6985 23.0687 80.8584 23.1687M71.3296 31.1763C71.4705 30.9959 71.5689 30.7859 71.6173 30.5622C71.3528 30.6572 71.0961 30.7729 70.8498 30.9082C70.6 31.0412 70.3984 31.2494 70.2736 31.5034H70.3123C70.495 31.5255 70.6802 31.5077 70.8553 31.4512C71.0304 31.3948 71.1911 31.301 71.3264 31.1763" fill="#20248A"/>
  <path d="M107.68 17.5274C106.111 17.5211 104.574 17.9801 103.265 18.8465C101.956 19.713 100.933 20.9479 100.326 22.3954C99.7183 23.8429 99.5534 25.438 99.852 26.9791C100.151 28.5202 100.899 29.9383 102.003 31.0541C103.108 32.1699 104.518 32.9335 106.056 33.2483C107.594 33.5631 109.19 33.415 110.644 32.8228C112.098 32.2306 113.343 31.2208 114.224 29.921C115.104 28.6212 115.579 27.0896 115.589 25.5199C115.605 24.473 115.412 23.4335 115.021 22.4621C114.63 21.4908 114.049 20.6072 113.313 19.8629C112.577 19.1187 111.699 18.5288 110.732 18.1278C109.765 17.7268 108.727 17.5227 107.68 17.5274ZM105.711 24.8163C105.448 24.8163 105.19 24.7383 104.972 24.592C104.753 24.4458 104.582 24.2379 104.481 23.9947C104.381 23.7515 104.354 23.4839 104.406 23.2257C104.457 22.9675 104.584 22.7303 104.77 22.5442C104.956 22.358 105.193 22.2312 105.451 22.1799C105.71 22.1285 105.977 22.1549 106.22 22.2556C106.464 22.3564 106.671 22.527 106.818 22.7459C106.964 22.9647 107.042 23.2221 107.042 23.4853C107.042 23.8383 106.902 24.1769 106.652 24.4265C106.403 24.6761 106.064 24.8163 105.711 24.8163ZM109.589 24.8163C109.326 24.8163 109.069 24.7383 108.85 24.592C108.631 24.4458 108.46 24.2379 108.36 23.9947C108.259 23.7515 108.233 23.4839 108.284 23.2257C108.335 22.9675 108.462 22.7303 108.648 22.5442C108.834 22.358 109.072 22.2312 109.33 22.1799C109.588 22.1285 109.856 22.1549 110.099 22.2556C110.342 22.3564 110.55 22.527 110.696 22.7459C110.842 22.9647 110.92 23.2221 110.92 23.4853C110.92 23.8383 110.78 24.1769 110.531 24.4265C110.281 24.6761 109.942 24.8163 109.589 24.8163ZM105.711 28.7967C105.448 28.7967 105.19 28.7187 104.972 28.5724C104.753 28.4262 104.582 28.2183 104.481 27.9751C104.381 27.7319 104.354 27.4642 104.406 27.206C104.457 26.9479 104.584 26.7107 104.77 26.5245C104.956 26.3384 105.193 26.2116 105.451 26.1603C105.71 26.1089 105.977 26.1353 106.22 26.236C106.464 26.3368 106.671 26.5074 106.818 26.7262C106.964 26.9451 107.042 27.2025 107.042 27.4657C107.042 27.8187 106.902 28.1573 106.652 28.4069C106.403 28.6565 106.064 28.7967 105.711 28.7967ZM109.589 28.7967C109.326 28.7967 109.069 28.7187 108.85 28.5724C108.631 28.4262 108.46 28.2183 108.36 27.9751C108.259 27.7319 108.233 27.4642 108.284 27.206C108.335 26.9479 108.462 26.7107 108.648 26.5245C108.834 26.3384 109.072 26.2116 109.33 26.1603C109.588 26.1089 109.856 26.1353 110.099 26.236C110.342 26.3368 110.55 26.5074 110.696 26.7262C110.842 26.9451 110.92 27.2025 110.92 27.4657C110.92 27.8187 110.78 28.1573 110.531 28.4069C110.281 28.6565 109.942 28.7967 109.589 28.7967Z" fill="#DB3804"/>
  <path d="M98.8668 25.332V25.3878C98.9584 26.3142 98.8157 27.2488 98.4517 28.1056C98.0713 29.0344 97.5069 29.8765 96.7924 30.5813C94.9796 32.356 92.5941 33.2433 89.6359 33.2433C87.0671 33.3231 84.5705 32.3866 82.688 30.6371C81.3855 29.4392 80.4078 27.9309 79.8459 26.2529C79.2849 24.6738 79.0181 23.0053 79.0587 21.3301C79.1388 19.0916 79.7126 16.8985 80.739 14.9076C81.6896 13.011 83.0671 11.3606 84.7631 10.0861C86.0228 9.13728 87.4511 8.43614 88.9723 8.01984C90.464 7.61103 92.0222 7.5033 93.5561 7.70293C94.2377 7.75607 94.8945 7.98221 95.4643 8.35996C96.0342 8.73772 96.4982 9.2546 96.8126 9.86172C97.1995 10.5924 97.3587 11.4223 97.2696 12.2442C97.1749 13.1325 96.8608 13.9832 96.3556 14.7199C96.3186 14.7898 96.2699 14.8528 96.2118 14.9063L96.1902 14.9253C96.0028 15.1201 95.7667 15.2613 95.5063 15.3341H95.4651L95.4436 15.3531H95.4227C95.3821 15.3678 95.339 15.3741 95.2959 15.3715L95.2763 15.3905H94.799L94.7565 15.3715L94.7153 15.3531H94.6323C94.6125 15.3429 94.591 15.3365 94.5689 15.3341C94.5399 15.3377 94.5106 15.3312 94.4859 15.3157C94.4726 15.3157 94.465 15.31 94.465 15.2974L94.4238 15.2783H94.3819C94.3575 15.273 94.3353 15.2602 94.3185 15.2416C94.2925 15.2372 94.2677 15.2275 94.2457 15.2131C94.2199 15.2005 94.1956 15.185 94.1734 15.1668H94.1531L94.1322 15.1484L94.0917 15.111C94.0837 15.111 94.0758 15.1093 94.0685 15.1062C94.0612 15.103 94.0546 15.0984 94.0492 15.0926L94.0276 15.0742C94.0224 15.0685 94.016 15.0639 94.0089 15.0606C94.0019 15.0574 93.9942 15.0555 93.9864 15.0552L93.9452 15.0178C93.8465 14.9328 93.7623 14.8322 93.6961 14.7199H93.6759L93.6549 14.6826C93.6492 14.6782 93.6444 14.6726 93.6409 14.6663C93.6374 14.66 93.6353 14.653 93.6347 14.6458V14.6268C93.6285 14.6225 93.6234 14.617 93.6197 14.6105C93.6159 14.604 93.6137 14.5968 93.6131 14.5894C93.6131 14.578 93.6099 14.571 93.6023 14.571C93.5947 14.571 93.5935 14.5653 93.5935 14.5526C93.5935 14.5399 93.589 14.5336 93.5833 14.5336C93.5776 14.5336 93.5719 14.5279 93.5719 14.5152C93.5695 14.4952 93.5623 14.4761 93.551 14.4594L93.4876 14.2363V14.1806C93.4876 14.1685 93.48 14.1615 93.4661 14.1615V13.8098C93.472 13.8053 93.477 13.7997 93.4807 13.7933C93.4844 13.7869 93.4868 13.7798 93.4876 13.7724V13.7534L93.5079 13.7344V13.6976C93.5085 13.6816 93.5122 13.6659 93.5187 13.6513C93.5241 13.6362 93.5275 13.6204 93.5288 13.6044C93.5271 13.5912 93.528 13.5778 93.5315 13.565C93.535 13.5522 93.5409 13.5401 93.5491 13.5296L93.57 13.4929L93.5916 13.4555V13.4371C93.5927 13.4224 93.597 13.4082 93.6041 13.3953C93.6112 13.3824 93.621 13.3711 93.6328 13.3623C93.8975 12.929 94.0637 12.4428 94.1195 11.9381C94.1542 11.4978 94.0955 11.2094 93.9433 11.0729C93.8174 10.9248 93.6569 10.8099 93.4761 10.7384C93.2953 10.6669 93.0996 10.641 92.9064 10.6629C91.7552 10.6598 90.6304 11.0073 89.6815 11.6592C88.6779 12.339 87.8439 13.2402 87.2439 14.2934C86.5832 15.446 86.0811 16.6826 85.7512 17.9695C85.3914 19.3272 85.2098 20.726 85.2112 22.1306C85.1257 24.1697 85.6068 26.1927 86.6012 27.975C86.934 28.6126 87.4346 29.1472 88.0489 29.5211C88.6632 29.8951 89.368 30.0942 90.0872 30.097C91.6047 30.187 93.1004 29.7018 94.2761 28.7381C94.7693 28.3056 95.1532 27.7627 95.3967 27.1536C95.6181 26.6222 95.7377 26.054 95.7491 25.4784V25.4594C95.7506 25.438 95.7542 25.4167 95.7599 25.396C95.7647 25.3751 95.7681 25.3539 95.77 25.3326V25.2585L95.7903 25.2211V25.1279C95.7903 25.1152 95.7947 25.1095 95.801 25.1095C95.8074 25.1095 95.8112 25.1025 95.8112 25.0905C95.8112 25.0785 95.8144 25.0721 95.8226 25.0721C95.8309 25.0721 95.8328 25.0594 95.8328 25.0347L95.853 24.9973L95.874 24.9783V24.9016C95.874 24.8896 95.8771 24.8832 95.8834 24.8832C95.8898 24.8832 95.8942 24.8769 95.8942 24.8642C95.8942 24.8515 95.9019 24.8458 95.9152 24.8458C95.9285 24.8458 95.9354 24.8395 95.9354 24.8275C95.9354 24.8154 95.9398 24.8085 95.9462 24.8085C95.9525 24.8085 95.9564 24.8027 95.9564 24.7901C95.9583 24.7752 95.9661 24.7618 95.9779 24.7527C95.9837 24.7482 95.9885 24.7426 95.992 24.7361C95.9955 24.7297 95.9976 24.7226 95.9982 24.7153V24.6969L96.0191 24.6785C96.0344 24.6645 96.0482 24.649 96.0603 24.6322C96.0724 24.6153 96.0862 24.5996 96.1015 24.5853C96.1719 24.5106 96.2487 24.4421 96.3309 24.3806L96.3721 24.3432C96.3721 24.3312 96.3791 24.3248 96.3918 24.3248C96.4075 24.3241 96.4224 24.3176 96.4336 24.3065C96.4445 24.2953 96.4592 24.2885 96.4748 24.2875C96.4919 24.2692 96.5139 24.2564 96.5382 24.2507L96.5794 24.2317C96.5906 24.2206 96.6055 24.214 96.6212 24.2133H96.6421L96.6624 24.1949H96.6833C96.6966 24.1949 96.7049 24.1949 96.7049 24.1848C96.7049 24.1746 96.7112 24.1759 96.7245 24.1759L96.7461 24.1575L96.7664 24.1391H96.85L96.8697 24.1201L96.8912 24.1017H96.9736C96.9845 24.0905 96.9992 24.0838 97.0148 24.0827H97.0978C97.1199 24.0807 97.1415 24.0744 97.1613 24.0643H97.4737C97.5995 24.0808 97.724 24.1058 97.8464 24.1391C97.8711 24.1417 97.8952 24.1479 97.918 24.1575C97.9445 24.1657 97.9694 24.1783 97.9916 24.1949C98.0115 24.2117 98.0327 24.2269 98.0549 24.2405C98.0731 24.2556 98.095 24.2655 98.1183 24.2691C98.1183 24.2817 98.1253 24.2875 98.1386 24.2875C98.1632 24.2927 98.1855 24.3058 98.202 24.3248C98.2299 24.3248 98.2438 24.3312 98.2438 24.3432C98.3028 24.3821 98.3586 24.4258 98.4105 24.4738L98.4301 24.4922C98.4414 24.5037 98.4566 24.5105 98.4726 24.5112C98.4859 24.5112 98.4929 24.5175 98.4929 24.5296C98.4929 24.5416 98.5062 24.5606 98.5354 24.5853C98.5354 24.6107 98.5417 24.6227 98.555 24.6227C98.5683 24.6227 98.5766 24.6291 98.5766 24.6411C98.577 24.6484 98.579 24.6555 98.5824 24.6619C98.5857 24.6684 98.5905 24.674 98.5962 24.6785C98.6009 24.6999 98.6119 24.7193 98.6279 24.7343C98.6435 24.7542 98.6607 24.7729 98.6792 24.7901C98.6792 24.8027 98.6862 24.8085 98.7002 24.8085L98.7204 24.8458V24.8642C98.7204 24.8769 98.7242 24.8832 98.7318 24.8832C98.7382 24.8832 98.742 24.8896 98.742 24.9016C98.742 24.9137 98.7451 24.92 98.7521 24.92C98.7591 24.92 98.7616 24.927 98.7616 24.939C98.7648 24.9589 98.7721 24.9779 98.7832 24.9948L98.8034 25.0138V25.0696L98.8256 25.088V25.1254C98.8253 25.1384 98.8284 25.1513 98.8345 25.1628C98.8415 25.174 98.845 25.187 98.8446 25.2001C98.8476 25.2202 98.8552 25.2393 98.8668 25.2559V25.332Z" fill="#DF3701"/>
  <path d="M135.233 25.0066C135.568 24.7772 135.973 24.6746 136.376 24.7173C136.779 24.7601 137.154 24.9454 137.432 25.2399C137.561 25.3741 137.657 25.5364 137.713 25.714C137.768 25.8916 137.782 26.0797 137.753 26.2635C137.646 27.0369 137.451 27.7956 137.172 28.525C136.874 29.3173 136.491 30.0754 136.031 30.7864C135.564 31.5163 134.941 32.1331 134.206 32.5922C133.483 33.0575 132.64 33.3034 131.78 33.3002C131.177 33.3021 130.581 33.1694 130.035 32.9117C129.49 32.654 129.008 32.2779 128.626 31.8107C127.973 31.0204 127.48 30.1098 127.176 29.1303C125.751 31.6617 124.106 32.9275 122.239 32.9275C121.457 32.9416 120.682 32.7799 119.972 32.4545C119.261 32.129 118.632 31.6479 118.132 31.0469C117.012 29.7442 116.451 27.9387 116.451 25.6303C116.398 23.1052 117.31 20.6549 119.003 18.78C119.711 17.9903 120.558 17.3374 121.502 16.8538C122.33 16.4123 123.251 16.1733 124.188 16.1566C124.773 16.1579 125.352 16.2782 125.889 16.5103C125.974 13.0851 126.209 10.6652 126.594 9.25051C126.664 9.00786 126.785 8.78317 126.95 8.59198C127.114 8.40079 127.319 8.24768 127.548 8.14323C128.027 7.88514 128.56 7.74478 129.104 7.73378C129.63 7.72745 130.099 7.74329 130.515 7.78005C131.085 7.8376 131.615 8.09865 132.007 8.51528C132.158 8.68069 132.27 8.87779 132.335 9.09211C132.399 9.30642 132.415 9.53251 132.381 9.75377C131.768 13.7567 131.366 17.7891 131.177 21.8344C131.073 23.8407 131.142 25.8523 131.384 27.8468C131.591 29.2247 131.868 30.0698 132.214 30.3821C132.537 30.2158 132.818 29.9772 133.033 29.6849C133.404 29.2544 133.715 28.7755 133.956 28.2613V28.2423H133.978C134.311 27.516 134.535 26.7443 134.641 25.9523C134.668 25.7628 134.734 25.5812 134.836 25.4192C134.938 25.2572 135.073 25.1186 135.232 25.0123M124.54 27.5907C125.182 26.3597 125.703 25.0691 126.095 23.7371C126.01 22.9182 125.949 22.0435 125.909 21.1131C125.827 20.8053 125.715 20.5061 125.577 20.2194C125.426 19.9351 125.233 19.6748 125.006 19.4468C124.865 19.2769 124.683 19.146 124.477 19.0665C124.139 19.335 123.869 19.6794 123.689 20.0717C123.315 20.7765 123.037 21.5275 122.86 22.3053C122.332 24.1451 122.24 26.0824 122.59 27.964C122.639 28.4688 122.858 28.9417 123.212 29.3046C123.758 28.8222 124.208 28.2417 124.54 27.5933" fill="#DF3701"/>
  <path d="M147.532 25.1283C147.875 24.9051 148.29 24.8185 148.694 24.8856C149.092 24.9322 149.456 25.1329 149.708 25.4446C149.828 25.5869 149.915 25.7545 149.961 25.9349C150.008 26.1153 150.013 26.3039 149.977 26.4866C149.746 27.4817 149.315 28.4192 148.709 29.2418C148.382 29.748 148 30.2157 147.568 30.6362L147.549 30.6546C146.443 31.8094 145.009 32.5959 143.441 32.9072C143.073 32.9856 142.698 33.0291 142.322 33.0371H142.093C139.397 33.0371 137.385 32.3051 136.058 30.8409C134.923 29.5733 134.356 27.8358 134.356 25.6284C134.338 24.2891 134.611 22.9618 135.155 21.738C135.65 20.617 136.434 19.6473 137.426 18.9277C138.091 18.4187 138.857 18.059 139.673 17.873C140.489 17.6871 141.336 17.6793 142.155 17.8502C143.005 17.9983 143.79 18.4008 144.406 19.0043C144.982 19.5493 145.347 20.2817 145.433 21.0706C145.446 21.3062 145.446 21.5423 145.433 21.7779C145.252 23.3042 144.069 24.4273 141.884 25.1473C141.146 25.381 140.389 25.5492 139.622 25.6499C139.579 26.8521 139.866 28.0433 140.452 29.0935C140.617 29.4295 140.87 29.7145 141.184 29.9178C141.498 30.1211 141.862 30.2351 142.236 30.2477C142.432 30.2407 142.626 30.2159 142.817 30.1735C143.788 29.9246 144.667 29.4008 145.347 28.665C145.593 28.4129 145.815 28.1388 146.01 27.8461C146.012 27.8289 146.02 27.8128 146.031 27.7999C146.044 27.7827 146.058 27.7669 146.074 27.753C146.445 27.2335 146.725 26.6548 146.903 26.0416C146.935 25.854 147.007 25.6755 147.115 25.5181C147.222 25.3608 147.362 25.2283 147.525 25.1296M141.801 20.7917C141.621 20.8071 141.446 20.8607 141.289 20.9491C141.131 21.0374 140.994 21.1583 140.887 21.3038C140.54 21.7198 140.273 22.1962 140.099 22.709C140.352 22.6571 140.601 22.5888 140.845 22.5043C141.786 22.1823 142.277 21.8472 142.319 21.4991V21.4794C142.325 21.475 142.33 21.4694 142.333 21.463C142.337 21.4565 142.339 21.4494 142.339 21.442C142.286 21.2111 142.172 20.9989 142.008 20.8278C141.942 20.801 141.871 20.7883 141.801 20.7904" fill="#DF3701"/>
</svg>