<svg xmlns="http://www.w3.org/2000/svg" width="33" height="32" viewBox="0 0 33 32" fill="none">
  <path fill-rule="evenodd" clip-rule="evenodd" d="M25.4078 17.3899C29.3928 17.3899 32.6239 20.6209 32.6239 24.606C32.6239 28.5911 29.3928 31.8221 25.4078 31.8221C21.4227 31.8221 18.1917 28.5911 18.1917 24.606C18.1917 20.6209 21.4227 17.3899 25.4078 17.3899ZM21.9723 25.8379C21.7758 25.6494 21.6776 25.3998 21.6723 25.1503C21.667 24.898 21.7572 24.6458 21.9457 24.4493C22.1342 24.2555 22.3811 24.1547 22.6334 24.1493C22.8856 24.144 23.1378 24.2343 23.3343 24.4228L24.6007 25.6255L27.537 21.7811C27.545 21.7679 27.5583 21.7599 27.5689 21.7493C28.5247 20.9236 29.8044 22.3573 28.8751 23.2121L25.2671 27.6963C25.2591 27.7043 25.2511 27.7149 25.2432 27.7202C25.0547 27.8848 24.8157 27.9671 24.5794 27.9618C24.3405 27.9565 24.1016 27.8663 23.9157 27.6884L21.9723 25.8379ZM4.69659 7.08073C6.84709 7.80022 9.84186 8.24359 13.1685 8.24359C16.4951 8.24359 19.4899 7.80022 21.6404 7.08073C23.5281 6.45151 24.6963 5.68688 24.6963 4.94085C24.6963 4.19481 23.5281 3.43018 21.6404 2.80096C19.4899 2.08413 16.4951 1.6381 13.1685 1.6381C9.84186 1.6381 6.84709 2.08147 4.69659 2.80096C0.690285 4.13905 0.578777 5.70812 4.69659 7.08073ZM1.65668 12.7065C1.80536 13.4021 2.93902 14.103 4.69659 14.6898C6.84709 15.4093 9.84186 15.8527 13.1685 15.8527C16.4951 15.8527 19.4899 15.4093 21.6404 14.6898C23.5281 14.0606 24.6963 13.2959 24.6963 12.5499H24.7042V7.42587C24.0325 7.88517 23.1697 8.29138 22.1581 8.62856C19.8404 9.40114 16.6598 9.88169 13.1685 9.88169C9.6746 9.88169 6.49664 9.4038 4.17888 8.62856C3.17796 8.29403 2.32573 7.89579 1.65934 7.4418V12.7065H1.65668ZM16.8058 24.5688C15.6509 24.6856 14.4296 24.7467 13.1685 24.7467C9.6746 24.7467 6.49664 24.2688 4.17888 23.4936C3.17796 23.159 2.32573 22.7608 1.65934 22.3068V27.2158C1.80801 27.9114 2.94167 28.6123 4.69924 29.199C6.84975 29.9159 9.84452 30.3619 13.1712 30.3619C15.1677 30.3619 17.0421 30.2026 18.6881 29.9185C19.1023 30.4336 19.5722 30.9009 20.0926 31.3097C18.0934 31.7478 15.7146 32 13.1712 32C9.67726 32 6.49929 31.5221 4.18153 30.7469C2.96026 30.338 0.0212395 28.9999 0.0212395 27.3963C0.0212395 27.2078 0.0212395 27.0512 0.0212395 26.8707C0.0159296 19.5643 0 12.2526 0 4.94085C0 3.4116 1.59562 2.11333 4.17622 1.25048C6.49398 0.477889 9.6746 0 13.1685 0C16.6624 0 19.8404 0.477889 22.1581 1.25313C24.5078 2.03634 26.0397 3.18327 26.2972 4.53729C26.329 4.62225 26.345 4.71517 26.345 4.81341V16.0624C26.0264 16.0252 25.7025 16.0066 25.3733 16.0066C25.1476 16.0066 24.9272 16.0146 24.7069 16.0332V15.0402C24.0352 15.4995 23.1723 15.9058 22.1608 16.2429C19.843 17.0155 16.6624 17.4961 13.1712 17.4961C9.67726 17.4961 6.49929 17.0182 4.18153 16.2429C3.18062 15.9084 2.32838 15.5102 1.66199 15.0562V19.9652C1.81067 20.6607 2.94433 21.3617 4.7019 21.9484C6.8524 22.6652 9.84717 23.1113 13.1738 23.1113C14.5039 23.1113 15.781 23.0396 16.973 22.9095C16.8615 23.4431 16.8058 24.0007 16.8058 24.5688Z" fill="#7C8DB5"/>
</svg>