<svg xmlns="http://www.w3.org/2000/svg" width="31" height="32" viewBox="0 0 31 32" fill="none">
  <path d="M20 25.8L27.92 17.88C28.2133 17.5867 28.5866 17.44 29.04 17.44C29.4933 17.44 29.8666 17.5867 30.16 17.88C30.4533 18.1733 30.6 18.5467 30.6 19C30.6 19.4533 30.4533 19.8267 30.16 20.12L21.12 29.16C20.8 29.48 20.4267 29.64 20 29.64C19.5733 29.64 19.2 29.48 18.88 29.16L14.32 24.6C14.0267 24.3067 13.88 23.9333 13.88 23.48C13.88 23.0267 14.0267 22.6533 14.32 22.36C14.6133 22.0667 14.9867 21.92 15.44 21.92C15.8933 21.92 16.2667 22.0667 16.56 22.36L20 25.8ZM3.2 32C2.32 32 1.56693 31.6869 0.940799 31.0608C0.314667 30.4346 0.00106667 29.681 0 28.8V6.4C0 5.52 0.3136 4.76693 0.940799 4.1408C1.568 3.51466 2.32107 3.20106 3.2 3.2H9.87999C10.1733 2.26667 10.7467 1.50027 11.6 0.900799C12.4533 0.301333 13.3867 0.00106667 14.4 0C15.4667 0 16.4203 0.300266 17.2608 0.900799C18.1013 1.50133 18.6677 2.26773 18.96 3.2H25.6C26.48 3.2 27.2336 3.5136 27.8608 4.1408C28.488 4.768 28.801 5.52106 28.8 6.4V12.8C28.8 13.2533 28.6464 13.6336 28.3392 13.9408C28.032 14.248 27.6522 14.4011 27.2 14.4C26.7477 14.3989 26.368 14.2453 26.0608 13.9392C25.7536 13.6331 25.6 13.2533 25.6 12.8V6.4H22.4V9.59999C22.4 10.0533 22.2464 10.4336 21.9392 10.7408C21.632 11.048 21.2523 11.2011 20.8 11.2H7.99999C7.54666 11.2 7.16693 11.0464 6.8608 10.7392C6.55466 10.432 6.40106 10.0523 6.4 9.59999V6.4H3.2V28.8H11.2C11.6533 28.8 12.0336 28.9536 12.3408 29.2608C12.648 29.568 12.8011 29.9477 12.8 30.4C12.7989 30.8522 12.6453 31.2325 12.3392 31.5408C12.0331 31.849 11.6533 32.0021 11.2 32H3.2ZM14.4 6.4C14.8533 6.4 15.2336 6.2464 15.5408 5.9392C15.848 5.632 16.0011 5.25226 16 4.8C15.9989 4.34773 15.8453 3.968 15.5392 3.6608C15.2331 3.3536 14.8533 3.2 14.4 3.2C13.9467 3.2 13.5669 3.3536 13.2608 3.6608C12.9547 3.968 12.8011 4.34773 12.8 4.8C12.7989 5.25226 12.9525 5.63253 13.2608 5.9408C13.5691 6.24906 13.9488 6.40213 14.4 6.4Z" fill="#7C8DB5"/>
</svg>