<svg xmlns="http://www.w3.org/2000/svg" width="32" height="32" viewBox="0 0 32 32" fill="none">
  <path d="M12.8 6.4H19.2C19.2 5.55131 18.8629 4.73737 18.2627 4.13726C17.6626 3.53714 16.8487 3.2 16 3.2C15.1513 3.2 14.3374 3.53714 13.7373 4.13726C13.1371 4.73737 12.8 5.55131 12.8 6.4ZM9.6 6.4C9.6 4.70261 10.2743 3.07475 11.4745 1.87452C12.6747 0.674284 14.3026 0 16 0C17.6974 0 19.3253 0.674284 20.5255 1.87452C21.7257 3.07475 22.4 4.70261 22.4 6.4H30.4C30.8243 6.4 31.2313 6.56857 31.5314 6.86863C31.8314 7.16869 32 7.57565 32 8C32 8.42435 31.8314 8.83131 31.5314 9.13137C31.2313 9.43143 30.8243 9.6 30.4 9.6H28.9888L27.5712 26.144C27.4349 27.7415 26.704 29.2297 25.523 30.3142C24.342 31.3986 22.7969 32.0002 21.1936 32H10.8064C9.20305 32.0002 7.65804 31.3986 6.47704 30.3142C5.29604 29.2297 4.56508 27.7415 4.4288 26.144L3.0112 9.6H1.6C1.17565 9.6 0.768687 9.43143 0.468629 9.13137C0.168571 8.83131 0 8.42435 0 8C0 7.57565 0.168571 7.16869 0.468629 6.86863C0.768687 6.56857 1.17565 6.4 1.6 6.4H9.6ZM20.8 16C20.8 15.5757 20.6314 15.1687 20.3314 14.8686C20.0313 14.5686 19.6243 14.4 19.2 14.4C18.7757 14.4 18.3687 14.5686 18.0686 14.8686C17.7686 15.1687 17.6 15.5757 17.6 16V22.4C17.6 22.8243 17.7686 23.2313 18.0686 23.5314C18.3687 23.8314 18.7757 24 19.2 24C19.6243 24 20.0313 23.8314 20.3314 23.5314C20.6314 23.2313 20.8 22.8243 20.8 22.4V16ZM12.8 14.4C13.2243 14.4 13.6313 14.5686 13.9314 14.8686C14.2314 15.1687 14.4 15.5757 14.4 16V22.4C14.4 22.8243 14.2314 23.2313 13.9314 23.5314C13.6313 23.8314 13.2243 24 12.8 24C12.3757 24 11.9687 23.8314 11.6686 23.5314C11.3686 23.2313 11.2 22.8243 11.2 22.4V16C11.2 15.5757 11.3686 15.1687 11.6686 14.8686C11.9687 14.5686 12.3757 14.4 12.8 14.4ZM7.616 25.872C7.68417 26.671 8.04987 27.4154 8.64071 27.9576C9.23155 28.4999 10.0045 28.8005 10.8064 28.8H21.1936C21.995 28.7997 22.7671 28.4987 23.3573 27.9565C23.9474 27.4144 24.3127 26.6705 24.3808 25.872L25.776 9.6H6.224L7.616 25.872Z" fill="#7C8DB5"/>
</svg>