<svg xmlns="http://www.w3.org/2000/svg" width="34" height="34" viewBox="0 0 34 34" fill="none">
  <path d="M14.3519 2.18362C14.6854 1.81122 15.0936 1.51332 15.55 1.30937C16.0064 1.10542 16.5006 1 17.0005 1C17.5004 1 17.9946 1.10542 18.451 1.30937C18.9074 1.51332 19.3156 1.81122 19.649 2.18362L20.8933 3.57366C21.249 3.97094 21.6894 4.28314 22.182 4.48714C22.6746 4.69114 23.2068 4.78172 23.7392 4.75218L25.6056 4.64908C26.1048 4.62156 26.6042 4.69965 27.0712 4.87825C27.5382 5.05685 27.9623 5.33193 28.3157 5.68555C28.6692 6.03917 28.9441 6.46337 29.1224 6.93044C29.3008 7.39751 29.3787 7.89696 29.3509 8.39616L29.2478 10.2608C29.2185 10.7929 29.3093 11.3247 29.5133 11.817C29.7172 12.3093 30.0293 12.7495 30.4263 13.1049L31.8164 14.3492C32.1891 14.6826 32.4872 15.091 32.6914 15.5475C32.8955 16.004 33.001 16.4985 33.001 16.9986C33.001 17.4987 32.8955 17.9932 32.6914 18.4497C32.4872 18.9063 32.1891 19.3146 31.8164 19.6481L30.4263 20.8923C30.0291 21.248 29.7169 21.6884 29.5129 22.181C29.3089 22.6736 29.2183 23.2058 29.2478 23.7382L29.3509 25.6046C29.3784 26.1038 29.3004 26.6032 29.1218 27.0702C28.9432 27.5372 28.6681 27.9613 28.3144 28.3147C27.9608 28.6682 27.5366 28.9431 27.0696 29.1215C26.6025 29.2998 26.103 29.3777 25.6038 29.3499L23.7392 29.2468C23.2071 29.2176 22.6753 29.3083 22.183 29.5123C21.6907 29.7163 21.2505 30.0283 20.8951 30.4253L19.6508 31.8154C19.3174 32.1881 18.909 32.4862 18.4525 32.6904C17.996 32.8945 17.5015 33 17.0014 33C16.5013 33 16.0068 32.8945 15.5503 32.6904C15.0937 32.4862 14.6854 32.1881 14.3519 31.8154L13.1077 30.4253C12.752 30.0281 12.3116 29.7159 11.819 29.5119C11.3264 29.3079 10.7942 29.2173 10.2618 29.2468L8.39537 29.3499C7.89616 29.3774 7.39675 29.2994 6.92976 29.1208C6.46278 28.9422 6.03871 28.6671 5.68526 28.3135C5.33181 27.9598 5.05692 27.5356 4.87855 27.0686C4.70017 26.6015 4.62232 26.1021 4.65008 25.6028L4.75317 23.7382C4.78245 23.2061 4.69173 22.6743 4.48774 22.182C4.28374 21.6897 3.97169 21.2495 3.57466 20.8941L2.18461 19.6498C1.81192 19.3164 1.51376 18.908 1.30964 18.4515C1.10551 17.995 1 17.5005 1 17.0004C1 16.5003 1.10551 16.0058 1.30964 15.5493C1.51376 15.0927 1.81192 14.6844 2.18461 14.351L3.57466 13.1067C3.97193 12.751 4.28413 12.3106 4.48813 11.818C4.69213 11.3254 4.78272 10.7932 4.75317 10.2608L4.65008 8.39438C4.62282 7.89531 4.7011 7.3961 4.87981 6.92933C5.05852 6.46255 5.33365 6.03871 5.68724 5.68545C6.04083 5.3322 6.46494 5.05747 6.93188 4.8792C7.39882 4.70093 7.89811 4.62313 8.39715 4.65086L10.2618 4.75396C10.7939 4.78323 11.3257 4.69252 11.818 4.48852C12.3103 4.28453 12.7505 3.97248 13.1059 3.57544L14.3519 2.18362Z" stroke="#7C8DB5" stroke-width="1.5"/>
  <path d="M12.5547 12.5566H12.5725V12.5744H12.5547V12.5566ZM21.4424 21.4444H21.4602V21.4622H21.4424V21.4444Z" stroke="#7C8DB5" stroke-width="2.25" stroke-linejoin="round"/>
  <path d="M22.3294 11.668L11.6641 22.3333" stroke="#7C8DB5" stroke-width="1.5" stroke-linecap="round" stroke-linejoin="round"/>
</svg>