<svg xmlns="http://www.w3.org/2000/svg" width="31" height="32" viewBox="0 0 31 32" fill="none">
  <path fill-rule="evenodd" clip-rule="evenodd" d="M9.82723 5.37361C9.9413 4.57717 10.1847 4.13789 10.5295 3.84234C11.1033 3.35051 12.343 2.90909 15.1444 2.90909C17.9458 2.90909 19.1855 3.35051 19.7593 3.84234C20.1046 4.13836 20.3482 4.57855 20.4621 5.37738C18.9113 5.20118 17.1442 5.13369 15.1444 5.13369C13.1422 5.13369 11.3758 5.2014 9.82723 5.37361ZM6.86012 5.90918C6.93532 4.32538 7.31843 2.76319 8.63628 1.63359C10.0589 0.414192 12.2417 0 15.1444 0C18.0471 0 20.2299 0.414192 21.6525 1.63359C22.9755 2.76757 23.3564 4.33751 23.4295 5.92762C24.945 6.35025 26.229 6.989 27.2606 7.95328C29.2815 9.84228 30.0113 12.6793 30.2189 16.4089C30.2643 16.5496 30.2888 16.6998 30.2888 16.8556C30.2888 17.1254 30.2834 17.3978 30.2694 17.6711C30.2829 18.1892 30.2888 18.7227 30.2888 19.2715C30.2888 23.4381 29.7448 26.857 27.2364 29.0979C24.7945 31.2796 20.8554 32 15.1444 32C12.2613 32 9.86697 31.8596 7.90801 31.4689C5.94176 31.0767 4.31268 30.4131 3.05399 29.2921C0.52236 27.0374 0 23.3963 0 18.5668C0 18.1901 0.00317932 17.8205 0.010244 17.4583C0.0029764 17.2565 0 17.0553 0 16.8556C0 16.7411 0.0132323 16.6297 0.0382513 16.5228C0.196007 12.701 0.892984 9.76625 3.05399 7.8416C4.08177 6.92624 5.35651 6.31584 6.86012 5.90918ZM2.92106 17.4391C3.01337 13.2949 3.64437 11.2114 4.98879 10.014C5.72654 9.35696 6.8069 8.8508 8.47702 8.51769C10.1544 8.18314 12.3234 8.04278 15.1444 8.04278C17.9667 8.04278 20.1312 8.18338 21.8035 8.52702C23.4649 8.86845 24.5377 9.39013 25.2741 10.0785C26.5954 11.3136 27.2336 13.4591 27.3571 17.641C27.3175 18.2678 27.2233 18.7744 27.0568 19.1992C26.844 19.742 26.4867 20.2196 25.7989 20.6464C24.2882 21.5837 21.2521 22.246 15.1547 22.246C9.05794 22.246 6.01537 21.5839 4.49874 20.6455C3.80754 20.2178 3.44814 19.7392 3.23416 19.1965C3.04933 18.7276 2.95275 18.159 2.92106 17.4391ZM27.0933 23.2607C26.7831 24.9708 26.207 26.1167 25.2983 26.9285C23.7474 28.314 20.8416 29.0909 15.1444 29.0909C12.3234 29.0909 10.1544 28.9506 8.47702 28.616C6.8069 28.2829 5.72654 27.7767 4.98879 27.1197C4.10302 26.3308 3.52693 25.1572 3.21055 23.2631C5.51993 24.576 9.27213 25.1551 15.1547 25.1551C21.0391 25.1551 24.7884 24.5757 27.0933 23.2607ZM10.2674 18.5668C10.2674 17.7635 10.9186 17.1123 11.7219 17.1123H18.5668C19.3702 17.1123 20.0214 17.7635 20.0214 18.5668C20.0214 19.3702 19.3702 20.0214 18.5668 20.0214L11.7219 20.0214C10.9186 20.0214 10.2674 19.3702 10.2674 18.5668Z" fill="#7C8DB5"/>
</svg>