<svg xmlns="http://www.w3.org/2000/svg" width="32" height="32" viewBox="0 0 32 32" fill="none">
  <path d="M22.441 23.6C22.1072 23.2148 21.9403 22.7775 21.9403 22.288C21.9403 21.7997 22.1072 21.3926 22.441 21.0667L25.8094 17.7778H12.7454C12.2295 17.7778 11.7974 17.6071 11.449 17.2658C11.0994 16.9256 10.9246 16.5037 10.9246 16C10.9246 15.4963 11.0994 15.0738 11.449 14.7324C11.7974 14.3923 12.2295 14.2222 12.7454 14.2222H25.8094L22.441 10.9333C22.0768 10.5778 21.8947 10.1559 21.8947 9.66755C21.8947 9.17807 22.0768 8.75556 22.441 8.4C22.7748 8.04444 23.1923 7.86667 23.6937 7.86667C24.1938 7.86667 24.6107 8.02963 24.9445 8.35556L31.4993 14.7556C31.6814 14.9333 31.8106 15.1259 31.8871 15.3333C31.9624 15.5407 32 15.763 32 16C32 16.237 31.9624 16.4593 31.8871 16.6667C31.8106 16.8741 31.6814 17.0667 31.4993 17.2444L24.9445 23.6444C24.55 24.0296 24.1179 24.1997 23.6481 24.1547C23.1772 24.1108 22.7748 23.9259 22.441 23.6ZM3.64154 32C2.64011 32 1.78253 31.6521 1.06879 30.9564C0.356263 30.2596 0 29.4222 0 28.4444V3.55556C0 2.57778 0.356263 1.74044 1.06879 1.04356C1.78253 0.347852 2.64011 0 3.64154 0H14.5661C15.082 0 15.5148 0.170074 15.8644 0.510222C16.2127 0.851555 16.3869 1.27407 16.3869 1.77778C16.3869 2.28148 16.2127 2.70341 15.8644 3.04356C15.5148 3.38489 15.082 3.55556 14.5661 3.55556H3.64154V28.4444H14.5661C15.082 28.4444 15.5148 28.6151 15.8644 28.9564C16.2127 29.2966 16.3869 29.7185 16.3869 30.2222C16.3869 30.7259 16.2127 31.1479 15.8644 31.488C15.5148 31.8293 15.082 32 14.5661 32H3.64154Z" fill="#7C8DB5"/>
</svg>