<svg xmlns="http://www.w3.org/2000/svg" width="36" height="32" viewBox="0 0 36 32" fill="none">
  <path fill-rule="evenodd" clip-rule="evenodd" d="M28.3842 6.55869C28.3842 5.52986 28.3854 4.78915 28.435 4.21032C28.4857 3.61915 28.5748 3.40228 28.6171 3.33175C28.6281 3.31355 28.6324 3.31041 28.6381 3.30625L28.639 3.3056C28.6507 3.297 28.7003 3.26363 28.826 3.22481C29.1078 3.13783 29.5977 3.07344 30.4633 3.07344C31.3288 3.07344 31.8187 3.13783 32.1005 3.22481C32.2262 3.26363 32.2758 3.297 32.2875 3.3056L32.2884 3.30625C32.2941 3.31041 32.2985 3.31355 32.3094 3.33175C32.3517 3.40228 32.4408 3.61915 32.4915 4.21032C32.5411 4.78915 32.5423 5.52986 32.5423 6.55869V6.58231V6.60608V6.63001V6.65409V6.67833V6.70272V6.72727V6.75196V6.77681V6.80181V6.82695V6.85225V6.8777V6.90329V6.92904V6.95493V6.98096V7.00715V7.03347V7.05995V7.08656V7.11332V7.14023V7.16727V7.19446V7.22179V7.24926V7.27686V7.30461V7.3325V7.36052V7.38868V7.41698V7.44542V7.47399V7.50269V7.53153V7.56051V7.58961V7.61885V7.64822V7.67772V7.70736V7.73712V7.76701V7.79703V7.82718V7.85746V7.88786V7.91839V7.94905V7.97983V8.01074V8.04177V8.07292V8.1042V8.13559V8.16711V8.19875V8.23051V8.26239V8.29439V8.32651V8.35875V8.3911V8.42357V8.45616V8.48886V8.52167V8.5546V8.58765V8.6208V8.65407V8.68745V8.72095V8.75455V8.78826V8.82208V8.85601V8.89005V8.9242V8.95845V8.99281V9.02727V9.06184V9.09652V9.1313V9.16618V9.20116V9.23625V9.27143V9.30672V9.34211V9.3776V9.41318V9.44887V9.48465V9.52053V9.55651V9.59258V9.62874V9.66501V9.70136V9.73781V9.77435V9.81099V9.84771V9.88453V9.92144V9.95843V9.99552V10.0327V10.07V10.1073V10.1447V10.1823V10.2199V10.2576V10.2953V10.3332V10.3712V10.4092V10.4473V10.4855V10.5237V10.5621V10.6005V10.639V10.6776V10.7163V10.755V10.7938V10.8327V10.8717V10.9107V10.9499V10.9891V11.0283V11.0676V11.1071V11.1465V11.1861V11.2257V11.2654V11.3051V11.345V11.3848V11.4248V11.4648V11.5049V11.5451V11.5853V11.6256V11.6659V11.7063V11.7468V11.7873V11.8279V11.8685V11.9092V11.95V11.9908V12.0317V12.0726V12.1136V12.1547V12.1958V12.237V12.2782V12.3194V12.3607V12.4021V12.4435V12.485V12.5265V12.5681V12.6097V12.6514V12.6931V12.7349V12.7767V12.8185V12.8604V12.9024V12.9444V12.9864V13.0285V13.0706V13.1128V13.155V13.1972V13.2395V13.2818V13.3241V13.3665V13.409V13.4514V13.4939V13.5365V13.5791V13.6217V13.6643V13.707V13.7497V13.7924V13.8352V13.878V13.9208V13.9637V14.0066V14.0495V14.0925V14.1354V14.1784V14.2215V14.2645V14.3076V14.3507V14.3938V14.4369V14.4801V14.5233V14.5665V14.6097V14.653V14.6962V14.7395V14.7828V14.8261V14.8695V14.9128V14.9562V14.9996V15.043V15.0864V15.1298V15.1732V15.2167V15.2601V15.3036V15.3471V15.3906V15.4341V15.4776V15.5211V15.5646V15.6081V15.6516V15.6952V15.7387V15.7822V15.8258V15.8693V15.9129V15.9564V16V16.0435V16.0871V16.1306V16.1742V16.2177V16.2613V16.3048V16.3483V16.3919V16.4354V16.4789V16.5224V16.5659V16.6094V16.6529V16.6964V16.7398V16.7833V16.8267V16.8702V16.9136V16.957V17.0004V17.0438V17.0871V17.1305V17.1738V17.2171V17.2604V17.3037V17.347V17.3902V17.4335V17.4767V17.5199V17.563V17.6062V17.6493V17.6924V17.7355V17.7785V17.8215V17.8645V17.9075V17.9505V17.9934V18.0363V18.0791V18.122V18.1648V18.2075V18.2503V18.293V18.3356V18.3783V18.4209V18.4635V18.506V18.5485V18.591V18.6334V18.6758V18.7182V18.7605V18.8028V18.845V18.8872V18.9294V18.9715V19.0136V19.0556V19.0976V19.1395V19.1814V19.2233V19.2651V19.3069V19.3486V19.3902V19.4319V19.4734V19.515V19.5564V19.5978V19.6392V19.6805V19.7218V19.763V19.8042V19.8453V19.8863V19.9273V19.9683V20.0091V20.05V20.0907V20.1314V20.1721V20.2127V20.2532V20.2937V20.3341V20.3744V20.4147V20.4549V20.4951V20.5351V20.5752V20.6151V20.655V20.6948V20.7346V20.7743V20.8139V20.8534V20.8929V20.9323V20.9716V21.0109V21.0501V21.0892V21.1283V21.1672V21.2061V21.2449V21.2837V21.3223V21.3609V21.3994V21.4379V21.4762V21.5145V21.5527V21.5908V21.6288V21.6668V21.7046V21.7424V21.7801V21.8177V21.8552V21.8927V21.93V21.9673V22.0044V22.0415V22.0785V22.1154V22.1523V22.189V22.2256V22.2622V22.2986V22.335V22.3712V22.4074V22.4435V22.4794V22.5153V22.5511V22.5868V22.6224V22.6579V22.6932V22.7285V22.7637V22.7988V22.8338V22.8687V22.9034V22.9381V22.9727V23.0072V23.0415V23.0758V23.1099V23.1439V23.1779V23.2117V23.2454V23.279V23.3125V23.3459V23.3792V23.4123V23.4454V23.4783V23.5111V23.5438V23.5764V23.6089V23.6412V23.6735V23.7056V23.7376V23.7694V23.8012V23.8328V23.8644V23.8958V23.927V23.9582V23.9892V24.0201V24.0509V24.0816V24.1121V24.1425V24.1728V24.2029V24.233V24.2628V24.2926V24.3222V24.3517V24.3811V24.4104V24.4395V24.4684V24.4973V24.526V24.5545V24.583V24.6113V24.6394V24.6675V24.6954V24.7231V24.7507V24.7782V24.8055V24.8327V24.8597V24.8866V24.9134V24.94V24.9665V24.9928V25.019V25.045V25.0709V25.0967V25.1223V25.1477V25.173V25.1982V25.2232V25.248V25.2727V25.2972V25.3216V25.3459V25.37V25.3939V25.4177V25.4413C32.5423 26.6565 32.4733 27.4797 32.3597 28.0381C32.2455 28.5992 32.1126 28.7576 32.0899 28.7816C32.0818 28.7902 32.0744 28.797 32.0508 28.8081C32.0202 28.8225 31.9531 28.8477 31.822 28.8703C31.5225 28.9218 31.1298 28.9265 30.4633 28.9265C29.7864 28.9265 29.3887 28.9218 29.087 28.8701C28.9549 28.8475 28.8886 28.8224 28.8595 28.8087C28.8378 28.7984 28.8325 28.7929 28.8262 28.7862C28.8064 28.765 28.675 28.6087 28.5626 28.0444C28.4509 27.4838 28.3842 26.6587 28.3842 25.4413V6.55869ZM30.4633 0C28.7163 0 26.9212 0.184662 25.9817 1.75048C25.572 2.43324 25.4351 3.22077 25.3728 3.94786C25.3107 4.67301 25.3107 5.54434 25.3107 6.50198V6.502V6.55869V25.4413C25.3107 26.7349 25.3787 27.793 25.5484 28.6448C25.7173 29.493 26.0139 30.2783 26.5808 30.8848C27.176 31.5217 27.9023 31.7854 28.5679 31.8994C29.1571 32.0004 29.8149 32.0002 30.3903 32L30.4633 32L30.535 32C31.1018 32.0002 31.7552 32.0004 32.343 31.8993C33.0067 31.7851 33.7306 31.5219 34.3267 30.8894C34.8956 30.2857 35.1981 29.5025 35.3714 28.6511C35.5452 27.7971 35.6158 26.7371 35.6158 25.4413V25.4177V25.3939V25.37V25.3459V25.3216V25.2972V25.2727V25.248V25.2232V25.1982V25.173V25.1477V25.1223V25.0967V25.0709V25.045V25.019V24.9928V24.9665V24.94V24.9134V24.8866V24.8597V24.8327V24.8055V24.7782V24.7507V24.7231V24.6954V24.6675V24.6394V24.6113V24.583V24.5545V24.526V24.4973V24.4684V24.4395V24.4104V24.3811V24.3517V24.3222V24.2926V24.2628V24.233V24.2029V24.1728V24.1425V24.1121V24.0816V24.0509V24.0201V23.9892V23.9582V23.927V23.8958V23.8644V23.8328V23.8012V23.7694V23.7376V23.7056V23.6735V23.6412V23.6089V23.5764V23.5438V23.5111V23.4783V23.4454V23.4123V23.3792V23.3459V23.3125V23.279V23.2454V23.2117V23.1779V23.1439V23.1099V23.0758V23.0415V23.0072V22.9727V22.9381V22.9034V22.8687V22.8338V22.7988V22.7637V22.7285V22.6932V22.6579V22.6224V22.5868V22.5511V22.5153V22.4794V22.4435V22.4074V22.3712V22.335V22.2986V22.2622V22.2256V22.189V22.1523V22.1154V22.0785V22.0415V22.0044V21.9673V21.93V21.8927V21.8552V21.8177V21.7801V21.7424V21.7046V21.6668V21.6288V21.5908V21.5527V21.5145V21.4762V21.4379V21.3994V21.3609V21.3223V21.2837V21.2449V21.2061V21.1672V21.1283V21.0892V21.0501V21.0109V20.9716V20.9323V20.8929V20.8534V20.8139V20.7743V20.7346V20.6948V20.655V20.6151V20.5752V20.5351V20.4951V20.4549V20.4147V20.3744V20.3341V20.2937V20.2532V20.2127V20.1721V20.1314V20.0907V20.05V20.0091V19.9683V19.9273V19.8863V19.8453V19.8042V19.763V19.7218V19.6805V19.6392V19.5978V19.5564V19.515V19.4734V19.4319V19.3902V19.3486V19.3069V19.2651V19.2233V19.1814V19.1395V19.0976V19.0556V19.0136V18.9715V18.9294V18.8872V18.845V18.8028V18.7605V18.7182V18.6758V18.6334V18.591V18.5485V18.506V18.4635V18.4209V18.3783V18.3356V18.293V18.2503V18.2075V18.1648V18.122V18.0791V18.0363V17.9934V17.9505V17.9075V17.8645V17.8215V17.7785V17.7355V17.6924V17.6493V17.6062V17.563V17.5199V17.4767V17.4335V17.3902V17.347V17.3037V17.2604V17.2171V17.1738V17.1305V17.0871V17.0438V17.0004V16.957V16.9136V16.8702V16.8267V16.7833V16.7398V16.6964V16.6529V16.6094V16.5659V16.5224V16.4789V16.4354V16.3919V16.3483V16.3048V16.2613V16.2177V16.1742V16.1306V16.0871V16.0435V16V15.9564V15.9129V15.8693V15.8258V15.7822V15.7387V15.6952V15.6516V15.6081V15.5646V15.5211V15.4776V15.4341V15.3906V15.3471V15.3036V15.2601V15.2167V15.1732V15.1298V15.0864V15.043V14.9996V14.9562V14.9128V14.8695V14.8261V14.7828V14.7395V14.6962V14.653V14.6097V14.5665V14.5233V14.4801V14.4369V14.3938V14.3507V14.3076V14.2645V14.2215V14.1784V14.1354V14.0925V14.0495V14.0066V13.9637V13.9208V13.878V13.8352V13.7924V13.7497V13.707V13.6643V13.6217V13.5791V13.5365V13.4939V13.4514V13.409V13.3665V13.3241V13.2818V13.2395V13.1972V13.155V13.1128V13.0706V13.0285V12.9864V12.9444V12.9024V12.8604V12.8185V12.7767V12.7349V12.6931V12.6514V12.6097V12.5681V12.5265V12.485V12.4435V12.4021V12.3607V12.3194V12.2782V12.237V12.1958V12.1547V12.1136V12.0726V12.0317V11.9908V11.95V11.9092V11.8685V11.8279V11.7873V11.7468V11.7063V11.6659V11.6256V11.5853V11.5451V11.5049V11.4648V11.4248V11.3848V11.345V11.3051V11.2654V11.2257V11.1861V11.1465V11.1071V11.0676V11.0283V10.9891V10.9499V10.9107V10.8717V10.8327V10.7938V10.755V10.7163V10.6776V10.639V10.6005V10.5621V10.5237V10.4855V10.4473V10.4092V10.3712V10.3332V10.2953V10.2576V10.2199V10.1823V10.1447V10.1073V10.07V10.0327V9.99552V9.95843V9.92144V9.88453V9.84771V9.81099V9.77435V9.73781V9.70136V9.66501V9.62874V9.59258V9.55651V9.52053V9.48465V9.44887V9.41318V9.3776V9.34211V9.30672V9.27143V9.23625V9.20116V9.16618V9.1313V9.09652V9.06184V9.02727V8.99281V8.95845V8.9242V8.89005V8.85601V8.82208V8.78826V8.75455V8.72095V8.68745V8.65407V8.6208V8.58765V8.5546V8.52167V8.48886V8.45616V8.42357V8.3911V8.35875V8.32651V8.29439V8.26239V8.23051V8.19875V8.16711V8.13559V8.1042V8.07292V8.04177V8.01074V7.97983V7.94905V7.91839V7.88786V7.85746V7.82718V7.79703V7.76701V7.73712V7.70736V7.67772V7.64822V7.61885V7.58961V7.56051V7.53153V7.50269V7.47399V7.44542V7.41698V7.38868V7.36052V7.3325V7.30461V7.27686V7.24926V7.22179V7.19446V7.16727V7.14023V7.11332V7.08656V7.05995V7.03347V7.00715V6.98096V6.95493V6.92904V6.90329V6.8777V6.85225V6.82695V6.80181V6.77681V6.75196V6.72727V6.70272V6.67833V6.65409V6.63001V6.60608V6.58231V6.55869L35.6158 6.50198C35.6158 5.54434 35.6158 4.67301 35.5537 3.94786C35.4914 3.22077 35.3545 2.43324 34.9448 1.75048C34.0053 0.184662 32.2102 0 30.4633 0ZM15.7812 11.4801C15.736 11.8877 15.7342 12.3623 15.7342 12.9868L15.7342 19.6158L15.7342 26.2448C15.7342 26.2596 15.734 26.2743 15.7336 26.2891C15.6888 27.8431 15.9716 28.3683 16.1397 28.5484C16.285 28.704 16.6501 28.9265 17.8074 28.9265C18.9388 28.9265 19.3152 28.7066 19.4699 28.5426C19.6419 28.3602 19.9308 27.8341 19.8814 26.2941C19.8809 26.2777 19.8806 26.2612 19.8806 26.2448V19.6158L19.8806 12.9868C19.8806 12.3623 19.8788 11.8877 19.8336 11.4801C19.789 11.0785 19.7135 10.8729 19.6478 10.7633L19.6456 10.7596C19.6032 10.6878 19.3775 10.3051 17.8074 10.3051C16.2372 10.3051 16.0115 10.6878 15.9692 10.7596L15.967 10.7633C15.9013 10.873 15.8258 11.0785 15.7812 11.4801ZM13.3304 9.18394C14.1963 7.73834 15.7971 7.23163 17.8074 7.23163C19.8176 7.23163 21.4184 7.73834 22.2844 9.18394C22.6699 9.82759 22.82 10.526 22.8883 11.1413C22.9541 11.7351 22.9541 12.3726 22.954 12.9421L22.954 12.9868L22.954 19.6158V26.2208C23.0076 27.9851 22.7367 29.5583 21.7058 30.6514C20.6527 31.7679 19.171 32 17.8074 32C16.4306 32 14.943 31.7705 13.8929 30.6455C12.8701 29.5497 12.6129 27.9746 12.6608 26.2232L12.6607 19.6158L12.6607 12.9868L12.6607 12.9421C12.6607 12.3726 12.6606 11.7351 12.7265 11.1413C12.7948 10.526 12.9448 9.82759 13.3304 9.18394ZM3.12241 20.5552C3.07501 21.0321 3.07345 21.6077 3.07345 22.3779V27.3795C3.07345 28.2482 3.28348 28.4859 3.38529 28.5721C3.55091 28.7122 3.99918 28.9265 5.15254 28.9265C6.28014 28.9265 6.73527 28.7145 6.9099 28.568C7.01984 28.4758 7.23164 28.2331 7.23164 27.3795V27.3666V27.3538V27.341V27.3282V27.3154V27.3027V27.29V27.2773V27.2647V27.252V27.2394V27.2269V27.2143V27.2018V27.1893V27.1768V27.1644V27.1519V27.1395V27.1272V27.1148V27.1025V27.0902V27.0779V27.0656V27.0534V27.0412V27.029V27.0169V27.0047V26.9926V26.9805V26.9685V26.9564V26.9444V26.9324V26.9205V26.9085V26.8966V26.8847V26.8728V26.861V26.8491V26.8373V26.8256V26.8138V26.8021V26.7903V26.7786V26.767V26.7553V26.7437V26.7321V26.7205V26.7089V26.6974V26.6859V26.6744V26.6629V26.6515V26.64V26.6286V26.6172V26.6058V26.5945V26.5832V26.5719V26.5606V26.5493V26.5381V26.5268V26.5156V26.5045V26.4933V26.4821V26.471V26.4599V26.4488V26.4378V26.4267V26.4157V26.4047V26.3937V26.3828V26.3718V26.3609V26.35V26.3391V26.3282V26.3174V26.3065V26.2957V26.2849V26.2742V26.2634V26.2527V26.2419V26.2312V26.2205V26.2099V26.1992V26.1886V26.178V26.1674V26.1568V26.1463V26.1357V26.1252V26.1147V26.1042V26.0937V26.0833V26.0728V26.0624V26.052V26.0416V26.0312V26.0209V26.0106V26.0002V25.9899V25.9796V25.9694V25.9591V25.9489V25.9386V25.9284V25.9182V25.9081V25.8979V25.8878V25.8776V25.8675V25.8574V25.8473V25.8373V25.8272V25.8172V25.8071V25.7971V25.7871V25.7772V25.7672V25.7572V25.7473V25.7374V25.7275V25.7176V25.7077V25.6978V25.688V25.6781V25.6683V25.6585V25.6487V25.6389V25.6291V25.6194V25.6096V25.5999V25.5902V25.5805V25.5708V25.5611V25.5514V25.5418V25.5321V25.5225V25.5129V25.5033V25.4937V25.4841V25.4745V25.465V25.4554V25.4459V25.4364V25.4268V25.4173V25.4079V25.3984V25.3889V25.3795V25.37V25.3606V25.3512V25.3418V25.3324V25.323V25.3136V25.3042V25.2949V25.2855V25.2762V25.2669V25.2575V25.2482V25.2389V25.2297V25.2204V25.2111V25.2018V25.1926V25.1834V25.1741V25.1649V25.1557V25.1465V25.1373V25.1281V25.1189V25.1098V25.1006V25.0915V25.0823V25.0732V25.0641V25.055V25.0459V25.0368V25.0277V25.0186V25.0095V25.0004V24.9914V24.9823V24.9733V24.9642V24.9552V24.9462V24.9372V24.9282V24.9192V24.9102V24.9012V24.8922V24.8832V24.8743V24.8653V24.8564V24.8474V24.8385V24.8295V24.8206V24.8117V24.8028V24.7938V24.7849V24.776V24.7671V24.7583V24.7494V24.7405V24.7316V24.7228V24.7139V24.705V24.6962V24.6873V24.6785V24.6697V24.6608V24.652V24.6432V24.6343V24.6255V24.6167V24.6079V24.5991V24.5903V24.5815V24.5727V24.5639V24.5552V24.5464V24.5376V24.5288V24.52V24.5113V24.5025V24.4938V24.485V24.4762V24.4675V24.4587V24.45V24.4412V24.4325V24.4238V24.415V24.4063V24.3975V24.3888V24.3801V24.3714V24.3626V24.3539V24.3452V24.3365V24.3277V24.319V24.3103V24.3016V24.2929V24.2842V24.2755V24.2667V24.258V24.2493V24.2406V24.2319V24.2232V24.2145V24.2058V24.1971V24.1884V24.1796V24.1709V24.1622V24.1535V24.1448V24.1361V24.1274V24.1187V24.11V24.1013V24.0926V24.0838V24.0751V24.0664V24.0577V24.049V24.0403V24.0315V24.0228V24.0141V24.0054V23.9966V23.9879V23.9792V23.9705V23.9617V23.953V23.9442V23.9355V23.9268V23.918V23.9093V23.9005V23.8918V23.883V23.8742V23.8655V23.8567V23.8479V23.8392V23.8304V23.8216V23.8128V23.8041V23.7953V23.7865V23.7777V23.7689V23.7601V23.7513V23.7425V23.7336V23.7248V23.716V23.7072V23.6983V23.6895V23.6806V23.6718V23.6629V23.6541V23.6452V23.6364V23.6275V23.6186V23.6097V23.6008V23.5919V23.583V23.5741V23.5652V23.5563V23.5474V23.5384V23.5295V23.5206V23.5116V23.5027V23.4937V23.4847V23.4758V23.4668V23.4578V23.4488V23.4398V23.4308V23.4218V23.4127V23.4037V23.3947V23.3856V23.3766V23.3675V23.3584V23.3494V23.3403V23.3312V23.3221V23.313V23.3039V23.2947V23.2856V23.2765V23.2673V23.2582V23.249V23.2398V23.2306V23.2214V23.2122V23.203V23.1938V23.1846V23.1753V23.1661V23.1568V23.1476V23.1383V23.129V23.1197V23.1104V23.1011V23.0917V23.0824V23.0731V23.0637V23.0543V23.045V23.0356V23.0262V23.0167V23.0073V22.9979V22.9884V22.979V22.9695V22.96V22.9506V22.9411V22.9315V22.922V22.9125V22.9029V22.8934V22.8838V22.8742V22.8646V22.855V22.8454V22.8358V22.8261V22.8165V22.8068V22.7971V22.7874V22.7777V22.768V22.7583V22.7485V22.7387V22.729V22.7192V22.7094V22.6996V22.6897V22.6799V22.67V22.6602V22.6503V22.6404V22.6305V22.6206V22.6106V22.6007V22.5907V22.5807V22.5707V22.5607V22.5507V22.5406V22.5306V22.5205V22.5104V22.5003V22.4902V22.4801V22.4699V22.4598V22.4496V22.4394V22.4292V22.4189V22.4087V22.4052L7.21913 22.0395V22.0395C7.19914 21.4443 7.18351 20.979 7.13911 20.5685C7.0858 20.0756 7.00551 19.8458 6.94162 19.7338L6.94041 19.7312C6.92412 19.6948 6.7676 19.3446 5.15254 19.3446C3.53041 19.3446 3.34151 19.6987 3.31552 19.7474L3.31353 19.751C3.2512 19.8571 3.16972 20.0791 3.12241 20.5552ZM0.66386 18.1937C1.5502 16.6857 3.20939 16.2712 5.15254 16.2712C7.09923 16.2712 8.7426 16.6881 9.61126 18.2109C9.98603 18.8679 10.1251 19.5939 10.1947 20.238C10.2526 20.7732 10.2726 21.379 10.2923 21.9744C10.2961 22.0913 10.3 22.2077 10.3041 22.3231L10.3046 22.3407L10.3051 22.3779V22.3882V22.3984V22.4087V22.4189V22.4292V22.4394V22.4496V22.4598V22.4699V22.4801V22.4902V22.5003V22.5104V22.5205V22.5306V22.5406V22.5507V22.5607V22.5707V22.5807V22.5907V22.6007V22.6106V22.6206V22.6305V22.6404V22.6503V22.6602V22.67V22.6799V22.6897V22.6996V22.7094V22.7192V22.729V22.7387V22.7485V22.7583V22.768V22.7777V22.7874V22.7971V22.8068V22.8165V22.8261V22.8358V22.8454V22.855V22.8646V22.8742V22.8838V22.8934V22.9029V22.9125V22.922V22.9315V22.9411V22.9506V22.96V22.9695V22.979V22.9884V22.9979V23.0073V23.0167V23.0262V23.0356V23.045V23.0543V23.0637V23.0731V23.0824V23.0917V23.1011V23.1104V23.1197V23.129V23.1383V23.1476V23.1568V23.1661V23.1753V23.1846V23.1938V23.203V23.2122V23.2214V23.2306V23.2398V23.249V23.2582V23.2673V23.2765V23.2856V23.2947V23.3039V23.313V23.3221V23.3312V23.3403V23.3494V23.3584V23.3675V23.3766V23.3856V23.3947V23.4037V23.4127V23.4218V23.4308V23.4398V23.4488V23.4578V23.4668V23.4758V23.4847V23.4937V23.5027V23.5116V23.5206V23.5295V23.5384V23.5474V23.5563V23.5652V23.5741V23.583V23.5919V23.6008V23.6097V23.6186V23.6275V23.6364V23.6452V23.6541V23.6629V23.6718V23.6806V23.6895V23.6983V23.7072V23.716V23.7248V23.7336V23.7425V23.7513V23.7601V23.7689V23.7777V23.7865V23.7953V23.8041V23.8128V23.8216V23.8304V23.8392V23.8479V23.8567V23.8655V23.8742V23.883V23.8918V23.9005V23.9093V23.918V23.9268V23.9355V23.9442V23.953V23.9617V23.9705V23.9792V23.9879V23.9966V24.0054V24.0141V24.0228V24.0315V24.0403V24.049V24.0577V24.0664V24.0751V24.0838V24.0926V24.1013V24.11V24.1187V24.1274V24.1361V24.1448V24.1535V24.1622V24.1709V24.1796V24.1884V24.1971V24.2058V24.2145V24.2232V24.2319V24.2406V24.2493V24.258V24.2667V24.2755V24.2842V24.2929V24.3016V24.3103V24.319V24.3277V24.3365V24.3452V24.3539V24.3626V24.3714V24.3801V24.3888V24.3975V24.4063V24.415V24.4238V24.4325V24.4412V24.45V24.4587V24.4675V24.4762V24.485V24.4938V24.5025V24.5113V24.52V24.5288V24.5376V24.5464V24.5552V24.5639V24.5727V24.5815V24.5903V24.5991V24.6079V24.6167V24.6255V24.6343V24.6432V24.652V24.6608V24.6697V24.6785V24.6873V24.6962V24.705V24.7139V24.7228V24.7316V24.7405V24.7494V24.7583V24.7671V24.776V24.7849V24.7938V24.8028V24.8117V24.8206V24.8295V24.8385V24.8474V24.8564V24.8653V24.8743V24.8832V24.8922V24.9012V24.9102V24.9192V24.9282V24.9372V24.9462V24.9552V24.9642V24.9733V24.9823V24.9914V25.0004V25.0095V25.0186V25.0277V25.0368V25.0459V25.055V25.0641V25.0732V25.0823V25.0915V25.1006V25.1098V25.1189V25.1281V25.1373V25.1465V25.1557V25.1649V25.1741V25.1834V25.1926V25.2018V25.2111V25.2204V25.2297V25.2389V25.2482V25.2575V25.2669V25.2762V25.2855V25.2949V25.3042V25.3136V25.323V25.3324V25.3418V25.3512V25.3606V25.37V25.3795V25.3889V25.3984V25.4079V25.4173V25.4268V25.4364V25.4459V25.4554V25.465V25.4745V25.4841V25.4937V25.5033V25.5129V25.5225V25.5321V25.5418V25.5514V25.5611V25.5708V25.5805V25.5902V25.5999V25.6096V25.6194V25.6291V25.6389V25.6487V25.6585V25.6683V25.6781V25.688V25.6978V25.7077V25.7176V25.7275V25.7374V25.7473V25.7572V25.7672V25.7772V25.7871V25.7971V25.8071V25.8172V25.8272V25.8373V25.8473V25.8574V25.8675V25.8776V25.8878V25.8979V25.9081V25.9182V25.9284V25.9386V25.9489V25.9591V25.9694V25.9796V25.9899V26.0002V26.0106V26.0209V26.0312V26.0416V26.052V26.0624V26.0728V26.0833V26.0937V26.1042V26.1147V26.1252V26.1357V26.1463V26.1568V26.1674V26.178V26.1886V26.1992V26.2099V26.2205V26.2312V26.2419V26.2527V26.2634V26.2742V26.2849V26.2957V26.3065V26.3174V26.3282V26.3391V26.35V26.3609V26.3718V26.3828V26.3937V26.4047V26.4157V26.4267V26.4378V26.4488V26.4599V26.471V26.4821V26.4933V26.5045V26.5156V26.5268V26.5381V26.5493V26.5606V26.5719V26.5832V26.5945V26.6058V26.6172V26.6286V26.64V26.6515V26.6629V26.6744V26.6859V26.6974V26.7089V26.7205V26.7321V26.7437V26.7553V26.767V26.7786V26.7903V26.8021V26.8138V26.8256V26.8373V26.8491V26.861V26.8728V26.8847V26.8966V26.9085V26.9205V26.9324V26.9444V26.9564V26.9685V26.9805V26.9926V27.0047V27.0169V27.029V27.0412V27.0534V27.0656V27.0779V27.0902V27.1025V27.1148V27.1272V27.1395V27.1519V27.1644V27.1768V27.1893V27.2018V27.2143V27.2269V27.2394V27.252V27.2647V27.2773V27.29V27.3027V27.3154V27.3282V27.341V27.3538V27.3666V27.3795C10.3051 28.7229 9.95849 30.0222 8.88527 30.9226C7.87676 31.7687 6.52398 32 5.15254 32C3.76765 32 2.40801 31.771 1.40028 30.9185C0.32875 30.012 1.54088e-06 28.7078 1.54088e-06 27.3795V22.3779V22.3283V22.3282C-3.20817e-05 21.6201 -6.64473e-05 20.8963 0.0640303 20.2513C0.129713 19.5903 0.274218 18.8566 0.66386 18.1937Z" fill="#7C8DB5"/>
</svg>