<svg xmlns="http://www.w3.org/2000/svg" width="31" height="32" viewBox="0 0 31 32" fill="none">
  <path fill-rule="evenodd" clip-rule="evenodd" d="M20.8217 20.2852C20.0293 21.0774 19.5361 22.12 19.4262 23.2352C19.3163 24.3503 19.5964 25.4691 20.2189 26.4008C20.8414 27.3326 21.7677 28.0197 22.84 28.345C23.9124 28.6703 25.0643 28.6138 26.0996 28.185C27.1348 27.7562 27.9894 26.9817 28.5176 25.9934C29.0459 25.0052 29.2151 23.8643 28.9965 22.7653C28.7779 21.6663 28.185 20.6771 27.3187 19.9662C26.4525 19.2553 25.3666 18.8668 24.246 18.8668C23.61 18.866 22.98 18.9909 22.3923 19.2343C21.8047 19.4777 21.2709 19.8348 20.8217 20.2852ZM21.1346 24.208C21.0336 24.1286 20.9683 24.0124 20.9529 23.8849C20.9376 23.7574 20.9736 23.629 21.053 23.528C21.1323 23.427 21.2486 23.3617 21.3761 23.3464C21.5036 23.3311 21.632 23.367 21.733 23.4464L23.6661 24.9668L26.6926 21.4706C26.7765 21.3735 26.8955 21.3137 27.0235 21.3044C27.1514 21.295 27.2779 21.3369 27.3749 21.4208C27.472 21.5047 27.5318 21.6237 27.5411 21.7516C27.5505 21.8796 27.5086 22.006 27.4247 22.1031L24.1131 25.9275L24.1099 25.9314C24.0305 26.0324 23.9144 26.0977 23.7869 26.113C23.6594 26.1284 23.531 26.0924 23.43 26.0132L21.1346 24.208ZM20.0505 14.2002L19.3817 13.5467L18.9035 15.3728L20.7193 14.8565L20.0505 14.2002ZM26.6638 5.60924L28.5013 7.40871L29.3938 6.49742C29.4574 6.4317 29.4924 6.34348 29.4912 6.25201C29.49 6.16055 29.4527 6.07328 29.3874 6.00924L28.0434 4.69369C27.9775 4.63027 27.8892 4.5954 27.7977 4.59667C27.7063 4.59793 27.619 4.63522 27.5548 4.70044L26.6638 5.61031V5.60924ZM23.5278 8.81244C23.5124 8.83092 23.4955 8.84816 23.4773 8.864L19.8087 12.6101L20.3822 13.1716L26.5618 6.86222L25.9883 6.30009L23.5278 8.81244ZM1.51147 4.11413H3.12711C3.22545 4.11367 3.31963 4.07442 3.3892 4.00492C3.45877 3.93542 3.49811 3.84127 3.49867 3.74293V1.70667L1.51147 4.11413ZM13.798 18.9198C13.6694 18.9198 13.5461 18.8687 13.4551 18.7778C13.3642 18.6868 13.3131 18.5635 13.3131 18.4348C13.3131 18.3062 13.3642 18.1829 13.4551 18.0919C13.5461 18.001 13.6694 17.9499 13.798 17.9499H19.7483C19.8769 17.9499 20.0002 18.001 20.0912 18.0919C20.1821 18.1829 20.2332 18.3062 20.2332 18.4348C20.2332 18.5635 20.1821 18.6868 20.0912 18.7778C20.0002 18.8687 19.8769 18.9198 19.7483 18.9198H13.798ZM4.51804 18.9198C4.38942 18.9198 4.26606 18.8687 4.17511 18.7778C4.08416 18.6868 4.03307 18.5635 4.03307 18.4348C4.03307 18.3062 4.08416 18.1829 4.17511 18.0919C4.26606 18.001 4.38942 17.9499 4.51804 17.9499H11.9531C12.0817 17.9499 12.205 18.001 12.296 18.0919C12.3869 18.1829 12.438 18.3062 12.438 18.4348C12.438 18.5635 12.3869 18.6868 12.296 18.7778C12.205 18.8687 12.0817 18.9198 11.9531 18.9198H4.51804ZM3.6736 29.6533V30.6606C3.67425 30.759 3.71361 30.8531 3.78315 30.9226C3.85269 30.9922 3.94681 31.0315 4.04516 31.0322H25.0034C25.1017 31.0315 25.1958 30.9922 25.2654 30.9226C25.3349 30.8531 25.3743 30.759 25.3749 30.6606V29.4123C24.615 29.562 23.8329 29.5591 23.0741 29.4037C22.8485 29.5649 22.5784 29.6519 22.3012 29.6526L3.6736 29.6533ZM25.3764 18.0089C24.8059 17.8967 24.222 17.8703 23.6437 17.9303V13.7536L25.3764 11.9844V18.0071V18.0089ZM25.4901 10.4875L22.838 13.1932C22.8199 13.2093 22.8029 13.2266 22.7872 13.2452L21.6469 14.4096L21.0738 13.8482L27.2526 7.53778L27.8258 8.0992L25.5403 10.4341C25.5221 10.4501 25.5051 10.4673 25.4894 10.4857L25.4901 10.4875ZM25.3764 5.54524L23.6423 7.31378V3.31804H25.0034C25.1017 3.3187 25.1958 3.35805 25.2654 3.42759C25.3349 3.49713 25.3743 3.59126 25.3749 3.6896V5.54453L25.3764 5.54524ZM23.6437 2.34916H25.0034C25.3588 2.34991 25.6995 2.49145 25.9509 2.7428C26.2022 2.99415 26.3438 3.33485 26.3445 3.69031V4.55467L26.8668 4.02133C27.111 3.77372 27.4433 3.63284 27.791 3.62951C28.1387 3.62618 28.4736 3.76066 28.7225 4.00356L30.0665 5.31911C30.3141 5.56327 30.455 5.89553 30.4583 6.24326C30.4616 6.59099 30.3272 6.9259 30.0843 7.17476L28.8544 8.43022L26.3449 10.9927V18.2876C27.4384 18.7116 28.3782 19.4563 29.0409 20.424C29.7036 21.3916 30.0582 22.537 30.0582 23.7099C30.0582 24.8827 29.7036 26.0281 29.0409 26.9958C28.3782 27.9635 27.4384 28.7081 26.3449 29.1321V30.6592C26.344 31.0147 26.2024 31.3553 25.951 31.6066C25.6996 31.8579 25.3588 31.9993 25.0034 32H4.04373C3.68821 31.9994 3.34741 31.858 3.09602 31.6066C2.84462 31.3552 2.70314 31.0144 2.70258 30.6588V29.6533H1.34116C0.985751 29.6526 0.645113 29.5111 0.393771 29.2598C0.142428 29.0085 0.000845409 28.6679 0 28.3125V4.58667C0.00257908 4.4745 0.0441988 4.36674 0.117689 4.28196L0.124444 4.27449L0.131911 4.26667L0.136178 4.2624L3.50756 0.177778C3.5526 0.122281 3.60945 0.077526 3.67397 0.0467724C3.73849 0.0160188 3.80906 4.0287e-05 3.88053 0H22.3012C22.6566 0.000845052 22.9972 0.142416 23.2486 0.393749C23.4999 0.645081 23.6415 0.985719 23.6423 1.34116V2.34844L23.6437 2.34916ZM8.95253 8.90098C8.88776 8.90273 8.8233 8.89149 8.76295 8.86792C8.70259 8.84434 8.64758 8.80891 8.60115 8.76372C8.55471 8.71853 8.51781 8.66449 8.49261 8.6048C8.46741 8.54511 8.45443 8.48097 8.45443 8.41618C8.45443 8.35138 8.46741 8.28725 8.49261 8.22756C8.51781 8.16786 8.55471 8.11383 8.60115 8.06864C8.64758 8.02344 8.70259 7.98802 8.76295 7.96444C8.8233 7.94087 8.88776 7.92962 8.95253 7.93138H19.7483C19.8746 7.9348 19.9946 7.98738 20.0827 8.07792C20.1708 8.16847 20.2201 8.28983 20.2201 8.41618C20.2201 8.54253 20.1708 8.66389 20.0827 8.75443C19.9946 8.84498 19.8746 8.89756 19.7483 8.90098H8.95253ZM4.51627 8.90098H7.10756C7.23386 8.89756 7.35384 8.84498 7.44197 8.75443C7.53009 8.66389 7.5794 8.54253 7.5794 8.41618C7.5794 8.28983 7.53009 8.16847 7.44197 8.07792C7.35384 7.98738 7.23386 7.9348 7.10756 7.93138H4.51627C4.38996 7.9348 4.26998 7.98738 4.18185 8.07792C4.09373 8.16847 4.04442 8.28983 4.04442 8.41618C4.04442 8.54253 4.09373 8.66389 4.18185 8.75443C4.26998 8.84498 4.38996 8.89756 4.51627 8.90098ZM4.51627 12.2407H18.8171L18.7815 12.2763C18.7185 12.3401 18.6747 12.4203 18.6549 12.5077L18.1049 14.6087H4.51627C4.38996 14.6121 4.26998 14.6647 4.18185 14.7553C4.09373 14.8458 4.04442 14.9672 4.04442 15.0935C4.04442 15.2199 4.09373 15.3412 4.18185 15.4318C4.26998 15.5223 4.38996 15.5749 4.51627 15.5783H17.8496L17.7536 15.946C17.732 16.0284 17.7325 16.1152 17.7552 16.1973C17.7779 16.2795 17.822 16.3542 17.8829 16.4139C17.9438 16.4735 18.0194 16.516 18.1021 16.537C18.1847 16.558 18.2714 16.5567 18.3534 16.5333L21.7856 15.5577C21.8766 15.532 21.958 15.4801 22.0196 15.4084L22.672 14.742V18.1116C21.8601 18.3408 21.1076 18.7435 20.4666 19.2919C19.8256 19.8404 19.3113 20.5215 18.9593 21.2882H4.51627C4.38996 21.2916 4.26998 21.3442 4.18185 21.4347C4.09373 21.5253 4.04442 21.6466 4.04442 21.773C4.04442 21.8993 4.09373 22.0207 4.18185 22.1112C4.26998 22.2018 4.38996 22.2544 4.51627 22.2578H18.6165C18.4179 23.0319 18.3804 23.8387 18.5063 24.6279H4.51627C4.38996 24.6313 4.26998 24.6839 4.18185 24.7745C4.09373 24.865 4.04442 24.9864 4.04442 25.1127C4.04442 25.2391 4.09373 25.3604 4.18185 25.451C4.26998 25.5415 4.38996 25.5941 4.51627 25.5975H18.7492C19.193 26.8834 20.072 27.9739 21.2345 28.6805H1.34116C1.24343 28.6794 1.15002 28.6401 1.08091 28.571C1.0118 28.5019 0.972486 28.4085 0.971378 28.3108V5.08444H3.12889C3.48435 5.08369 3.82505 4.94215 4.0764 4.6908C4.32775 4.43945 4.46929 4.09875 4.47004 3.74329V0.969956H22.3012C22.3994 0.970701 22.4935 1.0101 22.5629 1.07963C22.6324 1.14916 22.6717 1.24323 22.6724 1.34151V8.304L19.7664 11.2711H4.51627C4.38996 11.2745 4.26998 11.3271 4.18185 11.4177C4.09373 11.5082 4.04442 11.6296 4.04442 11.7559C4.04442 11.8823 4.09373 12.0036 4.18185 12.0942C4.26998 12.1847 4.38996 12.2373 4.51627 12.2407Z" fill="#7C8DB5"/>
</svg>